{
  "asset": {
    "generator": "Khronos glTF Blender I/O v4.0.44",
    "version": "2.0"
  },
  "scene": 0,
  "scenes": [
    {
      "name": "Scene",
      "nodes": [
        0,
        1,
        2
      ]
    }
  ],
  "nodes": [
    {
      "mesh": 0,
      "name": "Cube.066",
      "rotation": [
        -0.6503081321716309,
        -0.4084324836730957,
        0.24513167142868042,
        0.5917708277702332
      ],
      "scale": [
        0.8517166972160339,
        0.8517167568206787,
        0.8517166972160339
      ],
      "translation": [
        -6.608020782470703,
        0.7474554777145386,
        0.0176999568939209
      ]
    },
    {
      "mesh": 1,
      "name": "Cube.091",
      "scale": [
        0,
        0,
        0
      ],
      "translation": [
        -1.2273077964782715,
        0.4762668311595917,
        0.1341923475265503
      ]
    },
    {
      "mesh": 2,
      "name": "Cube.099",
      "rotation": [
        -0.12278777360916138,
        -0.6963642239570618,
        0.12278778105974197,
        0.6963642835617065
      ],
      "scale": [
        0.3593744933605194,
        0.3593744933605194,
        0.359374463558197
      ],
      "translation": [
        -1.4500807523727417,
        -0.34309256076812744,
        0.3877018392086029
      ]
    }
  ],
  "animations": [
    {
      "channels": [
        {
          "sampler": 0,
          "target": {
            "node": 0,
            "path": "translation"
          }
        },
        {
          "sampler": 1,
          "target": {
            "node": 0,
            "path": "rotation"
          }
        },
        {
          "sampler": 2,
          "target": {
            "node": 0,
            "path": "scale"
          }
        },
        {
          "sampler": 3,
          "target": {
            "node": 1,
            "path": "translation"
          }
        },
        {
          "sampler": 4,
          "target": {
            "node": 1,
            "path": "rotation"
          }
        },
        {
          "sampler": 5,
          "target": {
            "node": 1,
            "path": "scale"
          }
        },
        {
          "sampler": 6,
          "target": {
            "node": 2,
            "path": "translation"
          }
        }
      ],
      "name": "Animation",
      "samplers": [
        {
          "input": 28,
          "interpolation": "LINEAR",
          "output": 29
        },
        {
          "input": 28,
          "interpolation": "LINEAR",
          "output": 30
        },
        {
          "input": 28,
          "interpolation": "LINEAR",
          "output": 31
        },
        {
          "input": 32,
          "interpolation": "LINEAR",
          "output": 33
        },
        {
          "input": 32,
          "interpolation": "LINEAR",
          "output": 34
        },
        {
          "input": 32,
          "interpolation": "LINEAR",
          "output": 35
        },
        {
          "input": 36,
          "interpolation": "LINEAR",
          "output": 37
        }
      ]
    }
  ],
  "materials": [
    {
      "doubleSided": true,
      "name": "glucose 2",
      "pbrMetallicRoughness": {
        "baseColorFactor": [
          0.02169886603951454,
          0.19360069930553436,
          0.007558370474725962,
          1
        ],
        "metallicFactor": 0,
        "roughnessFactor": 0.5
      }
    },
    {
      "doubleSided": true,
      "name": "glucose 3",
      "pbrMetallicRoughness": {
        "baseColorFactor": [
          0.007328687235713005,
          0.2828744947910309,
          0.06658410280942917,
          1
        ],
        "metallicFactor": 0,
        "roughnessFactor": 0.5
      }
    },
    {
      "doubleSided": true,
      "name": "glucose 1",
      "pbrMetallicRoughness": {
        "baseColorFactor": [
          0.015581409446895123,
          0.5494548082351685,
          0.007303418591618538,
          1
        ],
        "metallicFactor": 0,
        "roughnessFactor": 0.5
      }
    },
    {
      "doubleSided": true,
      "name": "mito moleq 1",
      "pbrMetallicRoughness": {
        "baseColorFactor": [
          0.3415611982345581,
          0.016949119046330452,
          0.01071714423596859,
          1
        ],
        "metallicFactor": 0,
        "roughnessFactor": 0.5
      }
    }
  ],
  "meshes": [
    {
      "name": "Cube.133",
      "primitives": [
        {
          "attributes": {
            "POSITION": 0,
            "NORMAL": 1,
            "TEXCOORD_0": 2
          },
          "indices": 3,
          "material": 0
        },
        {
          "attributes": {
            "POSITION": 4,
            "NORMAL": 5,
            "TEXCOORD_0": 6
          },
          "indices": 7,
          "material": 1
        },
        {
          "attributes": {
            "POSITION": 8,
            "NORMAL": 9,
            "TEXCOORD_0": 10
          },
          "indices": 11,
          "material": 2
        }
      ]
    },
    {
      "name": "Cube.143",
      "primitives": [
        {
          "attributes": {
            "POSITION": 12,
            "NORMAL": 13,
            "TEXCOORD_0": 14
          },
          "indices": 15,
          "material": 0
        },
        {
          "attributes": {
            "POSITION": 16,
            "NORMAL": 17,
            "TEXCOORD_0": 18
          },
          "indices": 19,
          "material": 2
        },
        {
          "attributes": {
            "POSITION": 20,
            "NORMAL": 21,
            "TEXCOORD_0": 22
          },
          "indices": 23,
          "material": 1
        }
      ]
    },
    {
      "name": "Cube.158",
      "primitives": [
        {
          "attributes": {
            "POSITION": 24,
            "NORMAL": 25,
            "TEXCOORD_0": 26
          },
          "indices": 27,
          "material": 3
        }
      ]
    }
  ],
  "accessors": [
    {
      "bufferView": 0,
      "componentType": 5126,
      "count": 552,
      "max": [
        2.1782593727111816,
        2.1680943965911865,
        4.7052812576293945
      ],
      "min": [
        -3.4708809852600098,
        -1.694159984588623,
        -0.8395062685012817
      ],
      "type": "VEC3"
    },
    {
      "bufferView": 1,
      "componentType": 5126,
      "count": 552,
      "type": "VEC3"
    },
    {
      "bufferView": 2,
      "componentType": 5126,
      "count": 552,
      "type": "VEC2"
    },
    {
      "bufferView": 3,
      "componentType": 5123,
      "count": 2880,
      "type": "SCALAR"
    },
    {
      "bufferView": 4,
      "componentType": 5126,
      "count": 774,
      "max": [
        0.6711229681968689,
        0.7009217739105225,
        5.436770915985107
      ],
      "min": [
        -4.463667392730713,
        -2.284574031829834,
        0.019046783447265625
      ],
      "type": "VEC3"
    },
    {
      "bufferView": 5,
      "componentType": 5126,
      "count": 774,
      "type": "VEC3"
    },
    {
      "bufferView": 6,
      "componentType": 5126,
      "count": 774,
      "type": "VEC2"
    },
    {
      "bufferView": 7,
      "componentType": 5123,
      "count": 4032,
      "type": "SCALAR"
    },
    {
      "bufferView": 8,
      "componentType": 5126,
      "count": 330,
      "max": [
        -0.9528329372406006,
        0.5704212784767151,
        1.5127531290054321
      ],
      "min": [
        -2.979677438735962,
        -2.370711088180542,
        -1.6596944332122803
      ],
      "type": "VEC3"
    },
    {
      "bufferView": 9,
      "componentType": 5126,
      "count": 330,
      "type": "VEC3"
    },
    {
      "bufferView": 10,
      "componentType": 5126,
      "count": 330,
      "type": "VEC2"
    },
    {
      "bufferView": 11,
      "componentType": 5123,
      "count": 1728,
      "type": "SCALAR"
    },
    {
      "bufferView": 12,
      "componentType": 5126,
      "count": 552,
      "max": [
        3.1919362545013428,
        2.1680943965911865,
        1.5613670349121094
      ],
      "min": [
        -0.8395062685012817,
        -2.2701897621154785,
        -0.8395062685012817
      ],
      "type": "VEC3"
    },
    {
      "bufferView": 13,
      "componentType": 5126,
      "count": 552,
      "type": "VEC3"
    },
    {
      "bufferView": 14,
      "componentType": 5126,
      "count": 552,
      "type": "VEC2"
    },
    {
      "bufferView": 15,
      "componentType": 5123,
      "count": 2880,
      "type": "SCALAR"
    },
    {
      "bufferView": 16,
      "componentType": 5126,
      "count": 330,
      "max": [
        2.233309268951416,
        0.36001133918762207,
        1.448134183883667
      ],
      "min": [
        0.09737271070480347,
        -2.647589921951294,
        -1.5119829177856445
      ],
      "type": "VEC3"
    },
    {
      "bufferView": 17,
      "componentType": 5126,
      "count": 330,
      "type": "VEC3"
    },
    {
      "bufferView": 18,
      "componentType": 5126,
      "count": 330,
      "type": "VEC2"
    },
    {
      "bufferView": 19,
      "componentType": 5123,
      "count": 1728,
      "type": "SCALAR"
    },
    {
      "bufferView": 20,
      "componentType": 5126,
      "count": 444,
      "max": [
        3.4057023525238037,
        1.5171523094177246,
        1.5636290311813354
      ],
      "min": [
        -0.1717071533203125,
        -1.702821969985962,
        -1.8712730407714844
      ],
      "type": "VEC3"
    },
    {
      "bufferView": 21,
      "componentType": 5126,
      "count": 444,
      "type": "VEC3"
    },
    {
      "bufferView": 22,
      "componentType": 5126,
      "count": 444,
      "type": "VEC2"
    },
    {
      "bufferView": 23,
      "componentType": 5123,
      "count": 2304,
      "type": "SCALAR"
    },
    {
      "bufferView": 24,
      "componentType": 5126,
      "count": 3960,
      "max": [
        8.772523880004883,
        12.181929588317871,
        1.9896296262741089
      ],
      "min": [
        -10.734487533569336,
        -7.250129699707031,
        -1.9896289110183716
      ],
      "type": "VEC3"
    },
    {
      "bufferView": 25,
      "componentType": 5126,
      "count": 3960,
      "type": "VEC3"
    },
    {
      "bufferView": 26,
      "componentType": 5126,
      "count": 3960,
      "type": "VEC2"
    },
    {
      "bufferView": 27,
      "componentType": 5123,
      "count": 20736,
      "type": "SCALAR"
    },
    {
      "bufferView": 28,
      "componentType": 5126,
      "count": 30,
      "max": [
        1.2083333333333333
      ],
      "min": [
        0
      ],
      "type": "SCALAR"
    },
    {
      "bufferView": 29,
      "componentType": 5126,
      "count": 30,
      "type": "VEC3"
    },
    {
      "bufferView": 30,
      "componentType": 5126,
      "count": 30,
      "type": "VEC4"
    },
    {
      "bufferView": 31,
      "componentType": 5126,
      "count": 30,
      "type": "VEC3"
    },
    {
      "bufferView": 32,
      "componentType": 5126,
      "count": 29,
      "max": [
        2.875
      ],
      "min": [
        1.7083333333333333
      ],
      "type": "SCALAR"
    },
    {
      "bufferView": 33,
      "componentType": 5126,
      "count": 29,
      "type": "VEC3"
    },
    {
      "bufferView": 34,
      "componentType": 5126,
      "count": 29,
      "type": "VEC4"
    },
    {
      "bufferView": 35,
      "componentType": 5126,
      "count": 29,
      "type": "VEC3"
    },
    {
      "bufferView": 36,
      "componentType": 5126,
      "count": 13,
      "max": [
        1.7083333333333333
      ],
      "min": [
        1.2083333333333333
      ],
      "type": "SCALAR"
    },
    {
      "bufferView": 37,
      "componentType": 5126,
      "count": 13,
      "type": "VEC3"
    }
  ],
  "bufferViews": [
    {
      "buffer": 0,
      "byteLength": 6624,
      "byteOffset": 0,
      "target": 34962
    },
    {
      "buffer": 0,
      "byteLength": 6624,
      "byteOffset": 6624,
      "target": 34962
    },
    {
      "buffer": 0,
      "byteLength": 4416,
      "byteOffset": 13248,
      "target": 34962
    },
    {
      "buffer": 0,
      "byteLength": 5760,
      "byteOffset": 17664,
      "target": 34963
    },
    {
      "buffer": 0,
      "byteLength": 9288,
      "byteOffset": 23424,
      "target": 34962
    },
    {
      "buffer": 0,
      "byteLength": 9288,
      "byteOffset": 32712,
      "target": 34962
    },
    {
      "buffer": 0,
      "byteLength": 6192,
      "byteOffset": 42000,
      "target": 34962
    },
    {
      "buffer": 0,
      "byteLength": 8064,
      "byteOffset": 48192,
      "target": 34963
    },
    {
      "buffer": 0,
      "byteLength": 3960,
      "byteOffset": 56256,
      "target": 34962
    },
    {
      "buffer": 0,
      "byteLength": 3960,
      "byteOffset": 60216,
      "target": 34962
    },
    {
      "buffer": 0,
      "byteLength": 2640,
      "byteOffset": 64176,
      "target": 34962
    },
    {
      "buffer": 0,
      "byteLength": 3456,
      "byteOffset": 66816,
      "target": 34963
    },
    {
      "buffer": 0,
      "byteLength": 6624,
      "byteOffset": 70272,
      "target": 34962
    },
    {
      "buffer": 0,
      "byteLength": 6624,
      "byteOffset": 76896,
      "target": 34962
    },
    {
      "buffer": 0,
      "byteLength": 4416,
      "byteOffset": 83520,
      "target": 34962
    },
    {
      "buffer": 0,
      "byteLength": 5760,
      "byteOffset": 87936,
      "target": 34963
    },
    {
      "buffer": 0,
      "byteLength": 3960,
      "byteOffset": 93696,
      "target": 34962
    },
    {
      "buffer": 0,
      "byteLength": 3960,
      "byteOffset": 97656,
      "target": 34962
    },
    {
      "buffer": 0,
      "byteLength": 2640,
      "byteOffset": 101616,
      "target": 34962
    },
    {
      "buffer": 0,
      "byteLength": 3456,
      "byteOffset": 104256,
      "target": 34963
    },
    {
      "buffer": 0,
      "byteLength": 5328,
      "byteOffset": 107712,
      "target": 34962
    },
    {
      "buffer": 0,
      "byteLength": 5328,
      "byteOffset": 113040,
      "target": 34962
    },
    {
      "buffer": 0,
      "byteLength": 3552,
      "byteOffset": 118368,
      "target": 34962
    },
    {
      "buffer": 0,
      "byteLength": 4608,
      "byteOffset": 121920,
      "target": 34963
    },
    {
      "buffer": 0,
      "byteLength": 47520,
      "byteOffset": 126528,
      "target": 34962
    },
    {
      "buffer": 0,
      "byteLength": 47520,
      "byteOffset": 174048,
      "target": 34962
    },
    {
      "buffer": 0,
      "byteLength": 31680,
      "byteOffset": 221568,
      "target": 34962
    },
    {
      "buffer": 0,
      "byteLength": 41472,
      "byteOffset": 253248,
      "target": 34963
    },
    {
      "buffer": 0,
      "byteLength": 120,
      "byteOffset": 294720
    },
    {
      "buffer": 0,
      "byteLength": 360,
      "byteOffset": 294840
    },
    {
      "buffer": 0,
      "byteLength": 480,
      "byteOffset": 295200
    },
    {
      "buffer": 0,
      "byteLength": 360,
      "byteOffset": 295680
    },
    {
      "buffer": 0,
      "byteLength": 116,
      "byteOffset": 296040
    },
    {
      "buffer": 0,
      "byteLength": 348,
      "byteOffset": 296156
    },
    {
      "buffer": 0,
      "byteLength": 464,
      "byteOffset": 296504
    },
    {
      "buffer": 0,
      "byteLength": 348,
      "byteOffset": 296968
    },
    {
      "buffer": 0,
      "byteLength": 52,
      "byteOffset": 297316
    },
    {
      "buffer": 0,
      "byteLength": 156,
      "byteOffset": 297368
    }
  ],
  "buffers": [
    {
      "uri": "Glucose_puruvate_data.bin",
      "byteLength": 297524
    }
  ]
}